kopru_tumbacak
version=1
nRows=48
nColumns=15
inDegrees=yes
endheader
time	sacrum_pitch	sacrum_roll	sacrum_yaw	sacrum_x	sacrum_y	sacrum_z	sacroiliac_flx	hip_flx	hip_add	hip_int	knee_flx	ankle_flx	ankle_add	ankle_int
0.000150	20.633716	0.000000	0.000000	0.000000	0.050000	0.000000	3.700000	37.200327	-10.000000	0.000000	-123.701329	13.976773	-5.000000	0.000000
0.005100	20.633716	0.000000	0.000000	0.000000	0.050000	0.000000	3.700000	37.002736	-10.000000	0.000000	-124.491140	12.325260	-5.000000	0.000000
0.010050	20.633716	0.000000	0.000000	0.000000	0.050000	0.000000	3.700000	36.725182	-10.000000	0.000000	-124.619957	11.678052	-5.000000	0.000000
0.015000	20.633716	0.000000	0.000000	0.000000	0.050000	0.000000	3.700000	36.494850	-10.000000	0.000000	-124.870633	11.360237	-5.000000	0.000000
0.019950	20.633716	0.000000	0.000000	0.000000	0.050000	0.000000	3.700000	36.173022	-10.000000	0.000000	-124.941426	11.365103	-5.000000	0.000000
0.024900	20.633716	0.000000	0.000000	0.000000	0.050000	0.000000	3.700000	35.901315	-10.000000	0.000000	-124.887364	11.391667	-5.000000	0.000000
0.029850	20.633716	0.000000	0.000000	0.000000	0.050000	0.000000	3.700000	35.602180	-10.000000	0.000000	-124.746105	10.957221	-5.000000	0.000000
0.034800	20.633716	0.000000	0.000000	0.000000	0.050000	0.000000	3.700000	35.311705	-10.000000	0.000000	-124.623839	10.735923	-5.000000	0.000000
0.039750	20.633716	0.000000	0.000000	0.000000	0.050000	0.000000	3.700000	35.031133	-10.000000	0.000000	-124.409262	10.483873	-5.000000	0.000000
0.044700	20.633716	0.000000	0.000000	0.000000	0.050000	0.000000	3.700000	34.749570	-10.000000	0.000000	-124.127484	10.321880	-5.000000	0.000000
0.049650	20.633716	0.000000	0.000000	0.000000	0.050000	0.000000	3.700000	34.478978	-10.000000	0.000000	-123.765821	10.182209	-5.000000	0.000000
0.054600	20.633716	0.000000	0.000000	0.000000	0.050000	0.000000	3.700000	34.208565	-10.000000	0.000000	-123.280043	10.018710	-5.000000	0.000000
0.059550	20.633716	0.000000	0.000000	0.000000	0.050000	0.000000	3.700000	33.943442	-10.000000	0.000000	-122.695999	9.831352	-5.000000	0.000000
0.064500	20.633716	0.000000	0.000000	0.000000	0.050000	0.000000	3.700000	33.687245	-10.000000	0.000000	-122.048808	9.653029	-5.000000	0.000000
0.069450	20.633716	0.000000	0.000000	0.000000	0.050000	0.000000	3.700000	33.437472	-10.000000	0.000000	-121.425361	9.610060	-5.000000	0.000000
0.074400	20.633716	0.000000	0.000000	0.000000	0.050000	0.000000	3.700000	33.219955	-10.000000	0.000000	-121.307281	9.913616	-5.000000	0.000000
0.079350	20.633716	0.000000	0.000000	0.000000	0.050000	0.000000	3.700000	32.988138	-10.000000	0.000000	-121.221162	10.170396	-5.000000	0.000000
0.084300	20.633716	0.000000	0.000000	0.000000	0.050000	0.000000	3.700000	32.757206	-10.000000	0.000000	-121.136794	10.218330	-5.000000	0.000000
0.089250	20.633716	0.000000	0.000000	0.000000	0.050000	0.000000	3.700000	32.528637	-10.000000	0.000000	-121.045462	10.214092	-5.000000	0.000000
0.094200	20.633716	0.000000	0.000000	0.000000	0.050000	0.000000	3.700000	32.305834	-10.000000	0.000000	-120.932446	10.176334	-5.000000	0.000000
0.099150	20.633716	0.000000	0.000000	0.000000	0.050000	0.000000	3.700000	32.088761	-10.000000	0.000000	-120.805622	10.150873	-5.000000	0.000000
0.104100	20.633716	0.000000	0.000000	0.000000	0.050000	0.000000	3.700000	31.877984	-10.000000	0.000000	-120.666103	10.127676	-5.000000	0.000000
0.109050	20.633716	0.000000	0.000000	0.000000	0.050000	0.000000	3.700000	31.672955	-10.000000	0.000000	-120.514194	10.109178	-5.000000	0.000000
0.114000	20.633716	0.000000	0.000000	0.000000	0.050000	0.000000	3.700000	31.472098	-10.000000	0.000000	-120.350273	10.112071	-5.000000	0.000000
0.118950	20.633716	0.000000	0.000000	0.000000	0.050000	0.000000	3.700000	31.275843	-10.000000	0.000000	-120.181593	10.144928	-5.000000	0.000000
0.123900	20.633716	0.000000	0.000000	0.000000	0.050000	0.000000	3.700000	31.081721	-10.000000	0.000000	-120.004292	10.232862	-5.000000	0.000000
0.128850	20.633716	0.000000	0.000000	0.000000	0.050000	0.000000	3.700000	30.886649	-10.000000	0.000000	-119.809184	10.403990	-5.000000	0.000000
0.133800	20.633716	0.000000	0.000000	0.000000	0.050000	0.000000	3.700000	30.687201	-10.000000	0.000000	-119.583506	10.685462	-5.000000	0.000000
0.138750	20.633716	0.000000	0.000000	0.000000	0.050000	0.000000	3.700000	30.480086	-10.000000	0.000000	-119.310988	11.076329	-5.000000	0.000000
0.143700	20.633716	0.000000	0.000000	0.000000	0.050000	0.000000	3.700000	30.264084	-10.000000	0.000000	-118.978042	11.554136	-5.000000	0.000000
0.148650	20.633716	0.000000	0.000000	0.000000	0.050000	0.000000	3.700000	30.040192	-10.000000	0.000000	-118.576693	12.084030	-5.000000	0.000000
0.153600	20.633716	0.000000	0.000000	0.000000	0.050000	0.000000	3.700000	29.806596	-10.000000	0.000000	-118.089852	12.638198	-5.000000	0.000000
0.158550	20.633716	0.000000	0.000000	0.000000	0.050000	0.000000	3.700000	29.563198	-10.000000	0.000000	-117.519144	13.206216	-5.000000	0.000000
0.163500	20.633716	0.000000	0.000000	0.000000	0.050000	0.000000	3.700000	29.307240	-10.000000	0.000000	-116.874798	13.781921	-5.000000	0.000000
0.168450	20.633716	0.000000	0.000000	0.000000	0.050000	0.000000	3.700000	29.033234	-10.000000	0.000000	-116.165075	14.359482	-5.000000	0.000000
0.173400	20.633716	0.000000	0.000000	0.000000	0.050000	0.000000	3.700000	28.726050	-10.000000	0.000000	-115.384130	14.931803	-5.000000	0.000000
0.178350	20.633716	0.000000	0.000000	0.000000	0.050000	0.000000	3.700000	28.386912	-10.000000	0.000000	-114.600603	14.932669	-5.000000	0.000000
0.183300	20.633716	0.000000	0.000000	0.000000	0.050000	0.000000	3.700000	28.019939	-10.000000	0.000000	-113.937912	14.652983	-5.000000	0.000000
0.188250	20.633716	0.000000	0.000000	0.000000	0.050000	0.000000	3.700000	27.587380	-10.000000	0.000000	-113.228577	14.231206	-5.000000	0.000000
0.193200	20.633716	0.000000	0.000000	0.000000	0.050000	0.000000	3.700000	27.070361	-10.000000	0.000000	-112.460127	13.745822	-5.000000	0.000000
0.198150	20.633716	0.000000	0.000000	0.000000	0.050000	0.000000	3.700000	26.449810	-10.000000	0.000000	-111.582968	13.089785	-5.000000	0.000000
0.203100	20.633716	0.000000	0.000000	0.000000	0.050000	0.000000	3.700000	25.707457	-10.000000	0.000000	-110.564567	12.258447	-5.000000	0.000000
0.208050	20.633716	0.000000	0.000000	0.000000	0.050000	0.000000	3.700000	24.828007	-10.000000	0.000000	-109.375904	11.188159	-5.000000	0.000000
0.213000	20.633716	0.000000	0.000000	0.000000	0.050000	0.000000	3.700000	23.802827	-10.000000	0.000000	-108.016325	9.828251	-5.000000	0.000000
0.217950	20.633716	0.000000	0.000000	0.000000	0.050000	0.000000	3.700000	22.633424	-10.000000	0.000000	-106.492618	8.102364	-5.000000	0.000000
0.222900	20.633716	0.000000	0.000000	0.000000	0.050000	0.000000	3.700000	21.283210	-10.000000	0.000000	-104.745559	6.037756	-5.000000	0.000000
0.227850	20.633716	0.000000	0.000000	0.000000	0.050000	0.000000	3.700000	19.761320	-10.000000	0.000000	-102.778676	3.680364	-5.000000	0.000000
0.232800	20.633716	0.000000	0.000000	0.000000	0.050000	0.000000	3.700000	18.045257	-10.000000	0.000000	-100.533665	1.014051	-5.000000	0.000000
